<svg width="66" height="17" viewBox="0 0 66 17" fill="none" xmlns="http://www.w3.org/2000/svg">
<path d="M2.47133 2.06V16H0.651328V2.06H2.47133ZM10.9132 4.84C12.2465 4.84 13.3265 5.24667 14.1532 6.06C14.9799 6.86 15.3932 8.02 15.3932 9.54V16H13.5932V9.8C13.5932 8.70667 13.3199 7.87333 12.7732 7.3C12.2265 6.71333 11.4799 6.42 10.5332 6.42C9.5732 6.42 8.80654 6.72 8.2332 7.32C7.6732 7.92 7.3932 8.79333 7.3932 9.94V16H5.5732V5.04H7.3932V6.6C7.7532 6.04 8.23987 5.60667 8.8532 5.3C9.47987 4.99333 10.1665 4.84 10.9132 4.84ZM20.5862 6.54V13C20.5862 13.5333 20.6995 13.9133 20.9262 14.14C21.1528 14.3533 21.5462 14.46 22.1062 14.46H23.4462V16H21.8062C20.7928 16 20.0328 15.7667 19.5262 15.3C19.0195 14.8333 18.7662 14.0667 18.7662 13V6.54H17.3462V5.04H18.7662V2.28H20.5862V5.04H23.4462V6.54H20.5862ZM35.6513 10.1C35.6513 10.4467 35.6313 10.8133 35.5913 11.2H26.8313C26.898 12.28 27.2647 13.1267 27.9313 13.74C28.6113 14.34 29.4313 14.64 30.3913 14.64C31.178 14.64 31.8313 14.46 32.3513 14.1C32.8847 13.7267 33.258 13.2333 33.4713 12.62H35.4313C35.138 13.6733 34.5513 14.5333 33.6713 15.2C32.7913 15.8533 31.698 16.18 30.3913 16.18C29.3513 16.18 28.418 15.9467 27.5913 15.48C26.778 15.0133 26.138 14.3533 25.6713 13.5C25.2047 12.6333 24.9713 11.6333 24.9713 10.5C24.9713 9.36667 25.198 8.37333 25.6513 7.52C26.1047 6.66667 26.738 6.01333 27.5513 5.56C28.378 5.09333 29.3247 4.86 30.3913 4.86C31.4313 4.86 32.3513 5.08667 33.1513 5.54C33.9513 5.99333 34.5647 6.62 34.9913 7.42C35.4313 8.20667 35.6513 9.1 35.6513 10.1ZM33.7713 9.72C33.7713 9.02667 33.618 8.43333 33.3113 7.94C33.0047 7.43333 32.5847 7.05333 32.0513 6.8C31.5313 6.53333 30.9513 6.4 30.3113 6.4C29.3913 6.4 28.6047 6.69333 27.9513 7.28C27.3113 7.86667 26.9447 8.68 26.8513 9.72H33.7713Z" fill="white"/>
<path d="M39.8737 6.82C40.1937 6.19333 40.647 5.70667 41.2337 5.36C41.8337 5.01333 42.5603 4.84 43.4137 4.84V6.72H42.9337C40.8937 6.72 39.8737 7.82667 39.8737 10.04V16H38.0537V5.04H39.8737V6.82ZM46.4546 3.26C46.1079 3.26 45.8146 3.14 45.5746 2.9C45.3346 2.66 45.2146 2.36667 45.2146 2.02C45.2146 1.67333 45.3346 1.38 45.5746 1.14C45.8146 0.899999 46.1079 0.779999 46.4546 0.779999C46.7879 0.779999 47.0679 0.899999 47.2946 1.14C47.5346 1.38 47.6546 1.67333 47.6546 2.02C47.6546 2.36667 47.5346 2.66 47.2946 2.9C47.0679 3.14 46.7879 3.26 46.4546 3.26ZM47.3346 5.04V16H45.5146V5.04H47.3346ZM55.2165 16.18C54.1898 16.18 53.2565 15.9467 52.4165 15.48C51.5898 15.0133 50.9365 14.3533 50.4565 13.5C49.9898 12.6333 49.7565 11.6333 49.7565 10.5C49.7565 9.38 49.9965 8.39333 50.4765 7.54C50.9698 6.67333 51.6365 6.01333 52.4765 5.56C53.3165 5.09333 54.2565 4.86 55.2965 4.86C56.3365 4.86 57.2765 5.09333 58.1165 5.56C58.9565 6.01333 59.6165 6.66667 60.0965 7.52C60.5898 8.37333 60.8365 9.36667 60.8365 10.5C60.8365 11.6333 60.5832 12.6333 60.0765 13.5C59.5832 14.3533 58.9098 15.0133 58.0565 15.48C57.2032 15.9467 56.2565 16.18 55.2165 16.18ZM55.2165 14.58C55.8698 14.58 56.4832 14.4267 57.0565 14.12C57.6298 13.8133 58.0898 13.3533 58.4365 12.74C58.7965 12.1267 58.9765 11.38 58.9765 10.5C58.9765 9.62 58.8032 8.87333 58.4565 8.26C58.1098 7.64667 57.6565 7.19333 57.0965 6.9C56.5365 6.59333 55.9298 6.44 55.2765 6.44C54.6098 6.44 53.9965 6.59333 53.4365 6.9C52.8898 7.19333 52.4498 7.64667 52.1165 8.26C51.7832 8.87333 51.6165 9.62 51.6165 10.5C51.6165 11.3933 51.7765 12.1467 52.0965 12.76C52.4298 13.3733 52.8698 13.8333 53.4165 14.14C53.9632 14.4333 54.5632 14.58 55.2165 14.58ZM63.8095 16.12C63.4628 16.12 63.1695 16 62.9295 15.76C62.6895 15.52 62.5695 15.2267 62.5695 14.88C62.5695 14.5333 62.6895 14.24 62.9295 14C63.1695 13.76 63.4628 13.64 63.8095 13.64C64.1428 13.64 64.4228 13.76 64.6495 14C64.8895 14.24 65.0095 14.5333 65.0095 14.88C65.0095 15.2267 64.8895 15.52 64.6495 15.76C64.4228 16 64.1428 16.12 63.8095 16.12Z" fill="#F6B50E"/>
</svg>
